<svg width="920" height="708" viewBox="0 0 920 708" fill="none" xmlns="http://www.w3.org/2000/svg">
<path d="M492.099 58.2499C492.099 68.4089 502.032 76.2692 512.325 80.9681C526.331 87.361 535.892 100.187 535.892 114.967C535.892 129.747 526.331 142.573 512.325 148.966C502.032 153.665 492.099 161.525 492.099 171.684V211.539C492.099 221.698 482.688 229.934 471.078 229.934H271.381C248.162 229.934 229.34 213.463 229.34 193.144V36.7894C229.34 16.4711 248.162 0 271.381 0H471.078C482.688 0 492.099 8.23561 492.099 18.3947V58.2499Z" fill="#3A22D3"/>
<path d="M518.265 209.677C528.424 209.677 536.283 200.191 540.982 190.36C547.374 176.984 560.199 167.852 574.977 167.852C589.756 167.852 602.581 176.984 608.973 190.36C613.672 200.191 621.531 209.677 631.69 209.677H671.541C681.7 209.677 689.935 218.666 689.935 229.754V420.48C689.935 442.657 673.465 460.634 653.148 460.634H496.807C476.49 460.634 460.02 442.657 460.02 420.48V229.754C460.02 218.666 468.255 209.677 478.413 209.677H518.265Z" fill="#B4D670"/>
<path d="M460.787 229.934C460.364 229.934 460.02 229.59 460.02 229.167V171.684C460.02 161.525 468.712 153.665 477.718 148.966C489.973 142.573 498.339 129.747 498.339 114.967C498.339 100.187 489.973 87.361 477.718 80.9681C468.712 76.2692 460.02 68.409 460.02 58.2499V0.766468C460.02 0.34317 460.364 1.98921e-05 460.787 1.98921e-05L653.148 3.03484e-06C673.465 4.56773e-06 689.935 16.4711 689.935 36.7894V229.167C689.935 229.59 689.591 229.934 689.168 229.934H631.69C621.531 229.934 613.672 221.241 608.973 212.234C602.581 199.979 589.756 191.611 574.977 191.611C560.199 191.611 547.374 199.979 540.982 212.234C536.283 221.241 528.424 229.934 518.265 229.934H460.787Z" fill="#77BECF"/>
<path d="M345.063 362.529L342.603 374.903C340.831 383.984 336.796 391.368 327.644 393.663L344.669 417.713H323.019L305.895 393.464C303.435 394.761 302.254 397.955 302.254 403.343V417.713H283.753V405.04C283.753 393.564 290.74 386.179 299.105 383.884L283.949 362.529H305.6L319.968 382.786C322.133 381.489 323.511 379.892 324.298 375.402L326.562 362.529H345.063Z" fill="#F6F4F4"/>
<path d="M369.587 387.055H355.774V374.899C355.774 373.969 355.553 373.112 354.149 373.112H351.194V362.529H353.779C365.673 362.529 369.587 363.1 369.587 375.185V387.055Z" fill="#F6F4F4"/>
<path d="M377.993 417.713H375.718V402.226H377.598C384.322 402.226 391.046 398.795 391.046 393.699L391.145 381.348C391.145 378.701 389.959 377.035 387.091 377.035H380.861V362.529H389.563C404.396 362.529 409.736 365.273 409.736 381.839V402.03L412.505 416.733H395.199L393.024 404.578H392.331C391.54 410.557 386.596 417.713 377.993 417.713Z" fill="#F6F4F4"/>
<path d="M280.687 313.476H266.874V301.32C266.874 300.391 266.652 299.533 265.249 299.533H262.294V288.95H264.879C276.772 288.95 280.687 289.522 280.687 301.606V313.476Z" fill="#F6F4F4"/>
<path d="M329.736 344.134H311.685V310.904C311.685 306.314 308.709 303.719 305.06 303.719H286.818V288.95H305.637C323.495 288.95 329.736 296.634 329.736 315.195V344.134Z" fill="#F6F4F4"/>
<path d="M348.129 282.818C350.668 282.818 352.727 280.759 352.727 278.22C352.727 275.68 350.668 273.621 348.129 273.621C345.589 273.621 343.53 275.68 343.53 278.22C343.53 280.759 345.589 282.818 348.129 282.818Z" fill="#F22C61"/>
<path d="M335.867 288.95H339.314C355.171 288.95 360.391 289.749 360.391 306.613V344.134H341.973V306.213C341.973 304.917 341.677 303.719 339.807 303.719H335.867V288.95Z" fill="#F6F4F4"/>
<path d="M427.832 288.95L425.372 301.324C423.6 310.405 419.565 317.789 410.413 320.085L427.438 344.134H405.788L388.664 319.885C386.204 321.182 385.023 324.376 385.023 329.764V344.134H366.522V331.461C366.522 319.985 373.509 312.6 381.874 310.305L366.719 288.95H388.369L402.737 309.207C404.902 307.91 406.28 306.314 407.067 301.823L409.331 288.95H427.832Z" fill="#F6F4F4"/>
<path d="M156.713 556.026L153.83 570.33C151.754 580.827 147.025 589.362 136.298 592.016L156.252 619.815H130.877L110.808 591.785C107.924 593.284 106.54 596.976 106.54 603.204V619.815H84.8562V605.165C84.8562 591.9 93.0454 583.364 102.849 580.711L85.0869 556.026H110.462L127.301 579.442C129.839 577.943 131.454 576.097 132.376 570.906L135.029 556.026H156.713Z" fill="#F6F4F4"/>
<path d="M194.331 595.591H172.763V575.982C172.763 574.482 172.417 573.098 170.225 573.098H165.612V556.026H169.648C188.218 556.026 194.331 556.949 194.331 576.443V595.591Z" fill="#F6F4F4"/>
<path d="M202.182 620.968H199.529V602.743H201.72C209.563 602.743 217.407 598.706 217.407 592.708L217.522 578.173C217.522 575.059 216.138 573.098 212.793 573.098H205.527V556.026H215.677C232.978 556.026 239.206 559.256 239.206 578.75V602.512L242.435 619.815H222.251L219.713 605.511H218.906C217.983 612.548 212.216 620.968 202.182 620.968Z" fill="#F6F4F4"/>
<path d="M303.517 595.591H281.949V575.982C281.949 574.482 281.603 573.098 279.411 573.098H274.797V556.026H278.834C297.404 556.026 303.517 556.949 303.517 576.443V595.591Z" fill="#F6F4F4"/>
<path d="M363.187 619.815H341.503V581.403C341.503 576.097 337.927 573.098 333.544 573.098H311.63V556.026H334.236C355.69 556.026 363.187 564.908 363.187 586.363V619.815Z" fill="#F6F4F4"/>
<path d="M372.368 556.026H376.405C394.975 556.026 401.088 556.949 401.088 576.443V619.815H379.519V575.982C379.519 574.482 379.173 573.098 376.982 573.098H372.368V556.026Z" fill="#F6F4F4"/>
<path d="M483.568 556.026L480.684 570.33C478.608 580.827 473.879 589.362 463.153 592.016L483.107 619.815H457.732L437.663 591.785C434.779 593.284 433.395 596.976 433.395 603.204V619.815H411.711V605.165C411.711 591.9 419.9 583.364 429.704 580.711L411.942 556.026H437.316L454.156 579.442C456.694 577.943 458.308 576.097 459.231 570.906L461.884 556.026H483.568Z" fill="#F6F4F4"/>
<path d="M516.134 556.026H520.171C538.74 556.026 544.853 556.949 544.853 576.443V619.815H523.285V575.982C523.285 574.482 522.939 573.098 520.747 573.098H516.134V556.026Z" fill="#F6F4F4"/>
<path d="M583.389 595.591H561.82V575.982C561.82 574.482 561.474 573.098 559.283 573.098H554.669V556.026H558.706C577.276 556.026 583.389 556.949 583.389 576.443V595.591Z" fill="#F6F4F4"/>
<path d="M637.407 619.815H615.838V591.554C615.838 584.518 617.914 577.828 624.489 573.098H591.271V556.026H646.865V573.098H639.021C637.061 579.442 637.407 586.017 637.407 591.554V619.815Z" fill="#F6F4F4"/>
<path d="M655.281 556.026H659.318C677.888 556.026 684.001 556.949 684.001 576.443V619.815H662.432V575.982C662.432 574.482 662.086 573.098 659.894 573.098H655.281V556.026Z" fill="#F6F4F4"/>
<path d="M724.266 573.329V556.488C726.112 556.257 727.496 556.142 729.226 556.026C752.063 554.527 759.56 569.638 759.56 585.21V586.94C759.56 606.55 747.104 620.968 726.112 620.968C706.388 620.968 693.816 606.78 693.816 588.209V556.026H715.5V587.055C715.5 596.284 718.73 603.781 726.227 603.781C734.877 603.781 737.876 596.976 737.876 587.632V584.979C737.876 572.983 729.341 571.945 725.304 572.983C724.843 573.098 724.612 573.213 724.266 573.329Z" fill="#F6F4F4"/>
<path d="M801.402 553.835C822.509 553.835 835.773 566.177 835.773 587.171V587.286C835.773 608.28 822.509 620.622 801.402 620.622C780.179 620.622 767.03 608.395 767.03 587.402V587.055C767.03 566.062 780.179 553.835 801.402 553.835ZM814.205 588.094V586.363C814.205 576.674 808.784 571.022 801.517 571.022C794.135 571.022 788.599 576.674 788.599 586.363V588.094C788.599 597.783 794.135 603.435 801.517 603.435C808.784 603.435 814.205 597.783 814.205 588.094Z" fill="#F6F4F4"/>
<path d="M379.98 536.907C379.98 534.916 381.594 533.302 383.584 533.302H390.793C392.784 533.302 394.397 534.916 394.397 536.907V544.116C394.397 546.107 392.784 547.721 390.793 547.721H383.584C381.594 547.721 379.98 546.107 379.98 544.116V536.907Z" fill="#F22C61"/>
<path d="M3.74856 691.851C5.88236 691.851 7.55479 693.697 7.55479 695.658C7.55479 697.734 5.82469 699.464 3.74856 699.464C1.67243 699.464 0 697.734 0 695.658C0 693.697 1.61476 691.851 3.74856 691.851Z" fill="#F6F4F4"/>
<path d="M15.2249 667.743H36.3899C45.7324 667.743 49.7117 672.068 49.7117 681.7V699.118H42.6759V680.258C42.6759 675.76 40.1384 673.337 36.1592 673.337H28.2584V691.044C28.2584 697.042 24.6828 699.695 19.6079 699.695C17.8201 699.695 15.917 699.579 14.5906 699.233V694.1C15.917 694.331 16.4937 694.389 17.4164 694.389C19.8962 694.389 21.2803 693.524 21.2803 690.928V673.337H15.2249V667.743Z" fill="#F6F4F4"/>
<path d="M57.8959 667.743H62.6248C69.0839 667.743 71.333 669.646 71.4484 676.855V699.118H56.5118V693.523H64.4703V676.394C64.4703 674.779 64.1243 673.337 62.0481 673.337H57.8959V667.743Z" fill="#F6F4F4"/>
<path d="M89.51 687.006H82.5319V675.298C82.5319 674.029 82.0705 673.337 80.5134 673.337H78.4373V667.743H80.3404C86.9725 667.743 89.51 668.377 89.51 675.414V687.006Z" fill="#F6F4F4"/>
<path d="M107.777 687.006H100.799V675.298C100.799 674.029 100.338 673.337 98.7809 673.337H96.7048V667.743H98.6079C105.24 667.743 107.777 668.377 107.777 675.414V687.006Z" fill="#F6F4F4"/>
<path d="M134.753 667.224H135.099C142.654 667.224 148.075 673.337 148.075 682.854V683.892C148.075 692.139 143.461 697.676 137.694 699.118C134.522 699.868 130.889 699.695 128.121 698.945V693.408C130.197 693.985 132.735 694.216 135.214 693.581C138.502 692.658 141.097 689.083 141.097 683.719V683.027C141.097 676.798 137.925 672.818 133.369 672.818H133.023C128.698 672.818 125.295 676.221 124.661 681.066L122.815 699.118H115.837L117.971 680.604C118.721 674.26 116.587 670.511 115.261 667.743H122.123C122.815 669.358 123.796 670.973 124.142 674.087C126.103 669.992 129.793 667.224 134.753 667.224Z" fill="#F6F4F4"/>
<path d="M173.777 699.118H166.799V681.643C166.799 678.586 167.433 675.702 169.855 673.337H152.439V667.743H178.737V673.337H174.7C173.662 676.163 173.777 679.047 173.777 681.643V699.118Z" fill="#F6F4F4"/>
<path d="M215.699 681.527V667.743H222.734V681.527C222.734 691.332 216.102 699.695 204.453 699.695H203.761C192.631 699.695 185.768 691.62 185.768 681.527V667.743H192.746V681.527C192.746 681.989 192.746 682.45 192.804 682.854H193.784C198.571 682.854 200.762 680.604 200.762 676.394V667.743H207.798V676.048C207.798 681.989 203.473 686.776 194.245 686.776H193.438C194.995 691.793 198.917 694.043 203.703 694.043H204.511C211.2 694.043 215.699 690.005 215.699 681.527Z" fill="#F6F4F4"/>
<path d="M243.122 667.743H245.255C251.888 667.743 254.194 668.377 254.194 675.414V699.118H247.216V675.298C247.216 674.029 246.986 673.337 245.428 673.337H243.122V667.743Z" fill="#F6F4F4"/>
<path d="M281.17 667.224H281.516C289.071 667.224 294.492 673.337 294.492 682.854V683.892C294.492 692.139 289.878 697.676 284.111 699.118C280.939 699.868 277.306 699.695 274.538 698.945V693.408C276.614 693.985 279.152 694.216 281.631 693.581C284.919 692.658 287.514 689.083 287.514 683.719V683.027C287.514 676.798 284.342 672.818 279.786 672.818H279.44C275.115 672.818 271.712 676.221 271.078 681.066L269.232 699.118H262.254L264.388 680.604C265.138 674.26 263.004 670.511 261.678 667.743H268.54C269.232 669.358 270.213 670.973 270.559 674.087C272.52 669.992 276.21 667.224 281.17 667.224Z" fill="#F6F4F4"/>
<path d="M311.103 699.81C307.758 700.041 303.664 699.522 300.722 698.253V692.082C303.087 693.351 306.028 694.216 308.969 694.158C314.39 694.043 318.543 690.582 318.543 683.661C318.543 676.682 314.39 673.28 308.969 673.107C306.259 672.991 303.087 673.914 300.722 675.01V669.127C303.664 667.974 307.874 667.281 311.161 667.454C319.696 668.089 325.578 674.318 325.578 683.603C325.578 692.947 319.638 699.291 311.103 699.81Z" fill="#F6F4F4"/>
<path d="M345.771 673.337V667.743H376.336V673.395L366.763 699.118L359.612 699.06L369.416 673.337H345.771ZM353.326 681.931V706.846H346.29V681.931H353.326Z" fill="#F6F4F4"/>
<path d="M382.386 667.743H384.52C391.152 667.743 393.459 668.377 393.459 675.414V699.118H386.481V675.298C386.481 674.029 386.25 673.337 384.693 673.337H382.386V667.743Z" fill="#F6F4F4"/>
<path d="M411.726 687.006H404.748V675.298C404.748 674.029 404.287 673.337 402.73 673.337H400.654V667.743H402.557C409.189 667.743 411.726 668.377 411.726 675.414V687.006Z" fill="#F6F4F4"/>
<path d="M439.24 699.118H432.262V681.643C432.262 678.586 432.896 675.702 435.318 673.337H417.902V667.743H444.2V673.337H440.163C439.125 676.163 439.24 679.047 439.24 681.643V699.118Z" fill="#F6F4F4"/>
<path d="M479.662 699.118H450.366V693.523H468.647V680.258C468.647 675.76 466.11 673.337 462.073 673.337H451.231V667.743H462.303C471.646 667.743 475.625 672.068 475.625 681.7V693.523H479.662V699.118Z" fill="#F6F4F4"/>
<path d="M503.454 691.851C505.588 691.851 507.26 693.697 507.26 695.658C507.26 697.734 505.53 699.464 503.454 699.464C501.378 699.464 499.705 697.734 499.705 695.658C499.705 693.697 501.32 691.851 503.454 691.851Z" fill="#F22C61"/>
<path d="M513.258 667.743H515.449C522.024 667.743 524.33 668.377 524.33 675.414V708H517.352V675.298C517.352 674.029 517.122 673.337 515.622 673.337H513.258V667.743Z" fill="#F6F4F4"/>
<path d="M531.378 667.743H533.512C540.144 667.743 542.451 668.377 542.451 675.414V699.118H535.472V675.298C535.472 674.029 535.242 673.337 533.685 673.337H531.378V667.743Z" fill="#F6F4F4"/>
<path d="M560.718 687.006H553.74V675.298C553.74 674.029 553.279 673.337 551.721 673.337H549.645V667.743H551.548C558.181 667.743 560.718 668.377 560.718 675.414V687.006Z" fill="#F6F4F4"/>
<path d="M589.597 681.643L590.866 667.743H597.844L597.094 677.029C595.71 695.427 590.635 699.118 574.314 699.118H568.259V693.523H574.314C575.525 693.523 576.563 693.524 577.486 693.466C575.525 690.986 574.257 688.044 573.276 684.411L568.663 667.743H575.698L580.197 683.719C580.946 686.487 581.696 689.198 583.426 692.601C587.694 691.217 588.962 688.275 589.597 681.643Z" fill="#F6F4F4"/>
<path d="M628.074 699.118H621.038V680.258C621.038 675.76 618.5 673.337 614.521 673.337H604.198V667.743H614.752C624.094 667.743 628.074 672.068 628.074 681.7V699.118Z" fill="#F6F4F4"/>
<path d="M673.082 667.743V673.395L662.355 699.118L655.204 699.06L665.931 673.337H647.996V660.476H655.031V667.743H673.082Z" fill="#F6F4F4"/>
<path d="M689.606 699.81C686.262 700.041 682.167 699.522 679.226 698.253V692.082C681.59 693.351 684.531 694.216 687.473 694.158C692.894 694.043 697.046 690.582 697.046 683.661C697.046 676.682 692.894 673.28 687.473 673.107C684.762 672.991 681.59 673.914 679.226 675.01V669.127C682.167 667.974 686.377 667.281 689.664 667.454C698.199 668.089 704.082 674.318 704.082 683.603C704.082 692.947 698.142 699.291 689.606 699.81Z" fill="#F6F4F4"/>
<path d="M728.311 691.851C730.445 691.851 732.117 693.697 732.117 695.658C732.117 697.734 730.387 699.464 728.311 699.464C726.235 699.464 724.563 697.734 724.563 695.658C724.563 693.697 726.177 691.851 728.311 691.851Z" fill="#F22C61"/>
<path d="M762.74 699.118H755.704V680.258C755.704 675.76 753.167 673.337 749.188 673.337H738.865V667.743H749.418C758.761 667.743 762.74 672.068 762.74 681.7V699.118Z" fill="#F6F4F4"/>
<path d="M770.163 667.743H791.328C800.671 667.743 804.65 672.068 804.65 681.7V699.118H797.615V680.258C797.615 675.76 795.077 673.337 791.098 673.337H783.197V691.044C783.197 697.042 779.621 699.695 774.546 699.695C772.759 699.695 770.856 699.579 769.529 699.233V694.1C770.856 694.331 771.432 694.389 772.355 694.389C774.835 694.389 776.219 693.524 776.219 690.928V673.337H770.163V667.743Z" fill="#F6F4F4"/>
<path d="M844.438 667.743L842.65 675.76C841.669 680.431 839.363 684.757 834.403 686.083L843.976 699.118H835.729L823.849 683.027C821.254 683.776 819.005 686.43 819.005 691.332V699.118H811.969V692.139C811.969 684.93 816.295 680.604 821.197 679.393L812.604 667.743H820.851L831.347 681.989C833.769 680.95 835.095 678.989 835.729 675.702L837.402 667.743H844.438Z" fill="#F6F4F4"/>
<path d="M889.001 667.743V673.395L878.274 699.118L871.123 699.06L881.849 673.337H863.914V660.476H870.95V667.743H889.001Z" fill="#F6F4F4"/>
<path d="M905.525 699.81C902.18 700.041 898.085 699.522 895.144 698.253V692.082C897.509 693.351 900.45 694.216 903.391 694.158C908.812 694.043 912.964 690.582 912.964 683.661C912.964 676.682 908.812 673.28 903.391 673.107C900.68 672.991 897.509 673.914 895.144 675.01V669.127C898.085 667.974 902.295 667.281 905.582 667.454C914.118 668.089 920 674.318 920 683.603C920 692.947 914.06 699.291 905.525 699.81Z" fill="#F6F4F4"/>
</svg>
