<svg width="162" height="162" viewBox="0 0 162 162" fill="none" xmlns="http://www.w3.org/2000/svg">
<g clip-path="url(#clip0_241_116)">
<path d="M92.3984 20.5191C92.3984 24.086 95.8862 26.8458 99.5005 28.4956C104.418 30.7402 107.776 35.2433 107.776 40.4327C107.776 45.6221 104.418 50.1253 99.5005 52.3698C95.8862 54.0197 92.3984 56.7794 92.3984 60.3463V74.3397C92.3984 77.9066 89.0938 80.7982 85.0174 80.7982H14.8967C6.7438 80.7982 0.134521 75.0151 0.134521 67.8812V12.9842C0.134523 5.85036 6.7438 0.0672607 14.8967 0.0672607H85.0174C89.0938 0.0672607 92.3984 2.95883 92.3984 6.52573V20.5191Z" fill="#3A22D3"/>
<path d="M101.586 73.6861C105.153 73.6861 107.913 70.3554 109.563 66.9036C111.807 62.2072 116.311 59.0009 121.5 59.0009C126.689 59.0009 131.193 62.2072 133.437 66.9036C135.087 70.3554 137.847 73.6861 141.414 73.6861H155.407C158.974 73.6861 161.865 76.8421 161.865 80.7352V147.7C161.865 155.486 156.082 161.798 148.948 161.798H94.0515C86.9175 161.798 81.1345 155.486 81.1345 147.7V80.7352C81.1345 76.8421 84.026 73.6861 87.593 73.6861H101.586Z" fill="#B4D670"/>
<path d="M81.4036 80.7982C81.2551 80.7982 81.1345 80.6776 81.1345 80.5291V60.3463C81.1345 56.7794 84.1864 54.0197 87.3489 52.3698C91.6519 50.1253 94.5897 45.6221 94.5897 40.4327C94.5897 35.2433 91.6519 30.7402 87.3489 28.4956C84.1864 26.8458 81.1345 24.086 81.1345 20.5191V0.336371C81.1345 0.187748 81.2551 0.0672667 81.4036 0.0672667L148.948 0.0672607C156.082 0.0672613 161.865 5.85036 161.865 12.9842V80.5291C161.865 80.6776 161.745 80.7982 161.596 80.7982H141.414C137.847 80.7982 135.087 77.7463 133.437 74.5838C131.193 70.2808 126.689 67.343 121.5 67.343C116.311 67.343 111.807 70.2808 109.563 74.5838C107.913 77.7463 105.153 80.7982 101.586 80.7982H81.4036Z" fill="#77BECF"/>
<path d="M40.7691 127.353L39.9053 131.698C39.2831 134.886 37.8663 137.479 34.6526 138.284L40.6308 146.728H33.0286L27.0158 138.214C26.152 138.67 25.7373 139.791 25.7373 141.683V146.728H19.2408V142.279C19.2408 138.249 21.6943 135.657 24.6315 134.851L19.3099 127.353H26.9122L31.9573 134.465C32.7175 134.01 33.2014 133.449 33.4777 131.873L34.2727 127.353H40.7691Z" fill="#F6F4F4"/>
<path d="M49.3804 135.964H44.5301V131.696C44.5301 131.37 44.4523 131.069 43.9593 131.069H42.9219V127.353H43.8296C48.0058 127.353 49.3804 127.554 49.3804 131.797V135.964Z" fill="#F6F4F4"/>
<path d="M52.3319 146.728H51.5332V141.291H52.193C54.5542 141.291 56.9153 140.086 56.9153 138.297L56.95 133.961C56.95 133.031 56.5334 132.446 55.5264 132.446H53.3389V127.353H56.3945C61.6028 127.353 63.4779 128.317 63.4779 134.133V141.222L64.4501 146.384H58.3735L57.6098 142.117H57.3665C57.0888 144.216 55.3529 146.728 52.3319 146.728Z" fill="#F6F4F4"/>
<path d="M18.1645 110.13H13.3141V105.862C13.3141 105.536 13.2363 105.235 12.7435 105.235H11.706V101.519H12.6138C16.7898 101.519 18.1645 101.72 18.1645 105.963V110.13Z" fill="#F6F4F4"/>
<path d="M35.387 120.895H29.0488V109.227C29.0488 107.616 28.0039 106.704 26.7227 106.704H20.3173V101.519H26.9251C33.1957 101.519 35.387 104.217 35.387 110.734V120.895Z" fill="#F6F4F4"/>
<path d="M41.8455 99.3663C42.7372 99.3663 43.4601 98.6434 43.4601 97.7516C43.4601 96.8599 42.7372 96.137 41.8455 96.137C40.9538 96.137 40.2309 96.8599 40.2309 97.7516C40.2309 98.6434 40.9538 99.3663 41.8455 99.3663Z" fill="#F22C61"/>
<path d="M37.5399 101.519H38.7503C44.3183 101.519 46.1512 101.8 46.1512 107.721V120.895H39.6841V107.58C39.6841 107.125 39.5802 106.704 38.9233 106.704H37.5399V101.519Z" fill="#F6F4F4"/>
<path d="M69.8322 101.519L68.9684 105.864C68.3462 109.052 66.9294 111.645 63.7157 112.451L69.6939 120.895H62.0917L56.0789 112.381C55.2151 112.836 54.8004 113.957 54.8004 115.849V120.895H48.304V116.445C48.304 112.416 50.7574 109.823 53.6946 109.017L48.3731 101.519H55.9753L61.0204 108.631C61.7806 108.176 62.2645 107.616 62.5408 106.039L63.3358 101.519H69.8322Z" fill="#F6F4F4"/>
</g>
<defs>
<clipPath id="clip0_241_116">
<rect width="162" height="162" fill="white"/>
</clipPath>
</defs>
</svg>
