<svg width="1200" height="630" viewBox="0 0 1200 630" fill="none" xmlns="http://www.w3.org/2000/svg">
  <rect width="1200" height="630" fill="#0B0A10"/>
  <rect x="0" y="0" width="1200" height="6" fill="#B4D670"/>
  <g transform="translate(489,118) scale(1.37)">
    <path d="M92.3984 20.5191C92.3984 24.086 95.8862 26.8458 99.5005 28.4956C104.418 30.7402 107.776 35.2433 107.776 40.4327C107.776 45.6221 104.418 50.1253 99.5005 52.3698C95.8862 54.0197 92.3984 56.7794 92.3984 60.3463V74.3397C92.3984 77.9066 89.0938 80.7982 85.0174 80.7982H14.8967C6.7438 80.7982 0.134521 75.0151 0.134521 67.8812V12.9842C0.134523 5.85036 6.7438 0.0672607 14.8967 0.0672607H85.0174C89.0938 0.0672607 92.3984 2.95883 92.3984 6.52573V20.5191Z" fill="#3A22D3"/>
    <path d="M101.586 73.6861C105.153 73.6861 107.913 70.3554 109.563 66.9036C111.807 62.2072 116.311 59.0009 121.5 59.0009C126.689 59.0009 131.193 62.2072 133.437 66.9036C135.087 70.3554 137.847 73.6861 141.414 73.6861H155.407C158.974 73.6861 161.865 76.8421 161.865 80.7352V147.7C161.865 155.486 156.082 161.798 148.948 161.798H94.0515C86.9175 161.798 81.1345 155.486 81.1345 147.7V80.7352C81.1345 76.8421 84.026 73.6861 87.593 73.6861H101.586Z" fill="#B4D670"/>
    <path d="M81.4036 80.7982C81.2551 80.7982 81.1345 80.6776 81.1345 80.5291V60.3463C81.1345 56.7794 84.1864 54.0197 87.3489 52.3698C91.6519 50.1253 94.5897 45.6221 94.5897 40.4327C94.5897 35.2433 91.6519 30.7402 87.3489 28.4956C84.1864 26.8458 81.1345 24.086 81.1345 20.5191V0.336371C81.1345 0.187748 81.2551 0.0672667 81.4036 0.0672667L148.948 0.0672607C156.082 0.0672613 161.865 5.85036 161.865 12.9842V80.5291C161.865 80.6776 161.745 80.7982 161.596 80.7982H141.414C137.847 80.7982 135.087 77.7463 133.437 74.5838C131.193 70.2808 126.689 67.343 121.5 67.343C116.311 67.343 111.807 70.2808 109.563 74.5838C107.913 77.7463 105.153 80.7982 101.586 80.7982H81.4036Z" fill="#77BECF"/>
  </g>
  <text x="600" y="448" text-anchor="middle" font-family="Arial, Helvetica, sans-serif" font-size="66" font-weight="700" fill="#F6F4F4">Studio Ori Guy</text>
  <text x="600" y="508" text-anchor="middle" font-family="Arial, Helvetica, sans-serif" font-size="30" font-weight="400" fill="#B4D670" letter-spacing="2">orion.origuystudio.com</text>
</svg>
